<svg width="24" height="24" viewBox="0 0 24 24" fill="none" xmlns="http://www.w3.org/2000/svg">
<path fill-rule="evenodd" clip-rule="evenodd" d="M10.5803 5.14546C12.2309 4.80363 13.9495 5.06891 15.4202 5.89255C16.8909 6.71619 18.015 8.04287 18.586 9.62885C19.157 11.2148 19.1365 12.9536 18.5283 14.5257C17.9201 16.0978 16.7651 17.3976 15.2753 18.1864C13.7856 18.9751 12.0613 19.1999 10.4192 18.8192C8.77713 18.4386 7.32751 17.4782 6.33672 16.1145C6.0121 15.6677 5.38673 15.5687 4.93992 15.8933C4.49311 16.2179 4.39406 16.8433 4.71869 17.2901C5.99256 19.0434 7.85635 20.2782 9.96763 20.7676C12.0789 21.2569 14.2959 20.968 16.2112 19.9539C18.1265 18.9398 19.6116 17.2686 20.3936 15.2473C21.1756 13.2261 21.2019 10.9905 20.4678 8.95138C19.7336 6.91225 18.2883 5.20652 16.3974 4.14755C14.5065 3.08859 12.297 2.74752 10.1748 3.18701C8.05254 3.6265 6.16018 4.81703 4.84534 6.53988C4.00567 7.6401 3.43755 8.91023 3.17203 10.2479C2.7792 9.90541 2.18256 9.92119 1.80852 10.2952C1.41799 10.6858 1.41799 11.3189 1.80852 11.7094L3.30852 13.2094C3.69904 13.6 4.33221 13.6 4.72273 13.2094L6.22273 11.7094C6.61326 11.3189 6.61326 10.6858 6.22273 10.2952C5.96784 10.0403 5.60957 9.95181 5.28287 10.0297C5.5224 9.21311 5.91069 8.44055 6.43523 7.75324C7.45788 6.41325 8.92971 5.48728 10.5803 5.14546Z" fill="currentColor"/>
<path fill-rule="evenodd" clip-rule="evenodd" d="M11.9998 7C12.5521 7 12.9998 7.44772 12.9998 8V11.5858L15.7069 14.2929C16.0975 14.6834 16.0975 15.3166 15.7069 15.7071C15.3164 16.0976 14.6833 16.0976 14.2927 15.7071L11.2927 12.7071C11.1052 12.5196 10.9998 12.2652 10.9998 12V8C10.9998 7.44772 11.4476 7 11.9998 7Z" fill="currentColor"/>
</svg>
