<svg width="24" height="24" viewBox="0 0 24 24" fill="none" xmlns="http://www.w3.org/2000/svg">
<path fill-rule="evenodd" clip-rule="evenodd" d="M7.22222 5C7.16554 5 7.10977 5.02261 7.06755 5.06512C7.02509 5.10787 7 5.16733 7 5.23077V18.7692C7 18.8327 7.02509 18.8921 7.06755 18.9349C7.10977 18.9774 7.16554 19 7.22222 19H15.7778C15.8345 19 15.8902 18.9774 15.9325 18.9349C15.9749 18.8921 16 18.8327 16 18.7692V16.3077C16 15.7554 16.4477 15.3077 17 15.3077C17.5523 15.3077 18 15.7554 18 16.3077V18.7692C18 19.3586 17.7676 19.9253 17.3516 20.3442C16.9354 20.7633 16.3694 21 15.7778 21H7.22222C6.63059 21 6.06462 20.7633 5.64841 20.3442C5.23245 19.9253 5 19.3586 5 18.7692V5.23077C5 4.64137 5.23245 4.07472 5.64841 3.65585C6.06462 3.23673 6.63059 3 7.22222 3H15.7778C16.3694 3 16.9354 3.23673 17.3516 3.65585C17.7676 4.07472 18 4.64137 18 5.23077V7.69231C18 8.24459 17.5523 8.69231 17 8.69231C16.4477 8.69231 16 8.24459 16 7.69231V5.23077C16 5.16733 15.9749 5.10787 15.9325 5.06512C15.8902 5.02261 15.8345 5 15.7778 5H7.22222Z" fill="currentColor"/>
<path fill-rule="evenodd" clip-rule="evenodd" d="M12 12C12 11.4477 12.4477 11 13 11H22C22.5523 11 23 11.4477 23 12C23 12.5523 22.5523 13 22 13H13C12.4477 13 12 12.5523 12 12Z" fill="currentColor"/>
<path fill-rule="evenodd" clip-rule="evenodd" d="M19.2929 9.29289C19.6834 8.90237 20.3166 8.90237 20.7071 9.29289L22.7071 11.2929C23.0976 11.6834 23.0976 12.3166 22.7071 12.7071L20.7071 14.7071C20.3166 15.0976 19.6834 15.0976 19.2929 14.7071C18.9024 14.3166 18.9024 13.6834 19.2929 13.2929L20.5858 12L19.2929 10.7071C18.9024 10.3166 18.9024 9.68342 19.2929 9.29289Z" fill="currentColor"/>
</svg>
