<svg width="141" height="30" viewBox="0 0 141 30" fill="none" xmlns="http://www.w3.org/2000/svg">
<path d="M38.3013 21.2869V9.16572H46.1848V11.0064H40.4971V14.2971H45.7764V16.1378H40.4971V19.4463H46.2321V21.2869H38.3013Z" fill="#15141B"/>
<path d="M50.2597 9.16572L52.929 13.6046H53.0237L55.7048 9.16572H58.2083L54.4737 15.2263L58.2675 21.2869H55.7226L53.0237 16.8776H52.929L50.2301 21.2869H47.697L51.5263 15.2263L47.7443 9.16572H50.2597Z" fill="#15141B"/>
<path d="M69.8679 13.2554H67.6544C67.5912 12.8924 67.4748 12.5709 67.3052 12.2907C67.1355 12.0066 66.9244 11.7659 66.6719 11.5687C66.4194 11.3714 66.1313 11.2234 65.8078 11.1248C65.4882 11.0222 65.1429 10.9709 64.772 10.9709C64.1131 10.9709 63.5291 11.1366 63.0201 11.468C62.5111 11.7955 62.1126 12.2769 61.8246 12.9122C61.5366 13.5435 61.3925 14.3149 61.3925 15.2263C61.3925 16.1536 61.5366 16.9348 61.8246 17.5701C62.1166 18.2014 62.5151 18.6788 63.0201 19.0024C63.5291 19.322 64.1111 19.4818 64.7661 19.4818C65.1291 19.4818 65.4685 19.4344 65.7841 19.3397C66.1037 19.2411 66.3898 19.0971 66.6423 18.9077C66.8988 18.7183 67.1138 18.4855 67.2874 18.2093C67.465 17.9331 67.5873 17.6174 67.6544 17.2623L69.8679 17.2741C69.7851 17.8502 69.6055 18.3908 69.3293 18.8958C69.0571 19.4009 68.7 19.8467 68.2581 20.2334C67.8161 20.6162 67.2993 20.916 66.7074 21.1331C66.1155 21.3461 65.4586 21.4527 64.7365 21.4527C63.6712 21.4527 62.7203 21.206 61.8838 20.7128C61.0473 20.2196 60.3884 19.5074 59.907 18.5762C59.4256 17.645 59.1849 16.5284 59.1849 15.2263C59.1849 13.9203 59.4276 12.8037 59.9129 11.8764C60.3982 10.9452 61.0591 10.233 61.8956 9.73982C62.7321 9.24661 63.6791 9 64.7365 9C65.4112 9 66.0386 9.0947 66.6186 9.28409C67.1986 9.47349 67.7155 9.75166 68.1693 10.1186C68.623 10.4816 68.9959 10.9275 69.2879 11.4562C69.5838 11.981 69.7772 12.5807 69.8679 13.2554Z" fill="#15141B"/>
<path d="M71.8787 21.2869V9.16572H74.0745V14.2971H79.6912V9.16572H81.8929V21.2869H79.6912V16.1378H74.0745V21.2869H71.8787Z" fill="#15141B"/>
<path d="M85.8377 21.2869H83.4939L87.7612 9.16572H90.4719L94.7451 21.2869H92.4014L89.1639 11.6515H89.0692L85.8377 21.2869ZM85.9146 16.5343H92.3067V18.2981H85.9146V16.5343Z" fill="#15141B"/>
<path d="M106.303 9.16572V21.2869H104.349L98.638 13.0305H98.5374V21.2869H96.3416V9.16572H98.3066L104.012 17.428H104.119V9.16572H106.303Z" fill="#15141B"/>
<path d="M116.815 13.0365C116.717 12.7169 116.581 12.4308 116.407 12.1783C116.237 11.9218 116.032 11.7028 115.792 11.5213C115.555 11.3398 115.283 11.2037 114.975 11.1129C114.667 11.0182 114.332 10.9709 113.969 10.9709C113.318 10.9709 112.738 11.1346 112.229 11.4621C111.72 11.7896 111.319 12.271 111.027 12.9063C110.739 13.5376 110.595 14.307 110.595 15.2145C110.595 16.1299 110.739 16.9052 111.027 17.5405C111.315 18.1757 111.716 18.6591 112.229 18.9905C112.741 19.318 113.337 19.4818 114.016 19.4818C114.631 19.4818 115.164 19.3634 115.614 19.1267C116.068 18.8899 116.417 18.5545 116.662 18.1205C116.906 17.6825 117.028 17.1696 117.028 16.5817L117.526 16.6586H114.235V14.9422H119.153V16.3982C119.153 17.4359 118.932 18.3336 118.49 19.0911C118.048 19.8487 117.441 20.4327 116.667 20.843C115.894 21.2494 115.006 21.4527 114.004 21.4527C112.887 21.4527 111.907 21.2021 111.063 20.701C110.222 20.1959 109.565 19.4798 109.092 18.5526C108.622 17.6214 108.387 16.5166 108.387 15.2382C108.387 14.2596 108.525 13.3857 108.802 12.6162C109.082 11.8468 109.472 11.1938 109.974 10.6572C110.475 10.1166 111.063 9.70628 111.737 9.42614C112.412 9.14205 113.146 9 113.939 9C114.61 9 115.235 9.09864 115.815 9.29593C116.395 9.48927 116.91 9.76547 117.36 10.1245C117.814 10.4836 118.187 10.9097 118.479 11.4029C118.771 11.8961 118.962 12.4407 119.053 13.0365H116.815Z" fill="#15141B"/>
<path d="M121.277 21.2869V9.16572H129.16V11.0064H123.472V14.2971H128.752V16.1378H123.472V19.4463H129.207V21.2869H121.277Z" fill="#15141B"/>
<path d="M131.4 21.2869V9.16572H135.946C136.877 9.16572 137.658 9.32749 138.289 9.65104C138.925 9.97459 139.404 10.4283 139.728 11.0123C140.055 11.5923 140.219 12.269 140.219 13.0424C140.219 13.8197 140.053 14.4944 139.722 15.0665C139.394 15.6347 138.911 16.0747 138.272 16.3864C137.632 16.6941 136.847 16.848 135.916 16.848H132.679V15.0251H135.62C136.165 15.0251 136.611 14.9501 136.958 14.8002C137.305 14.6463 137.561 14.4234 137.727 14.1314C137.897 13.8355 137.982 13.4725 137.982 13.0424C137.982 12.6123 137.897 12.2453 137.727 11.9415C137.558 11.6338 137.299 11.401 136.952 11.2431C136.605 11.0814 136.157 11.0005 135.608 11.0005H133.596V21.2869H131.4ZM137.662 15.7945L140.663 21.2869H138.212L135.265 15.7945H137.662Z" fill="#15141B"/>
<path d="M8.85651 1.93183L5.70375 7.39257C4.16283 10.0615 6.06906 13.3975 9.13202 13.3867L22.3014 13.3824L15.7504 2.00202C14.1961 -0.672292 10.396 -0.638927 8.85651 1.93183Z" fill="#15141B"/>
<path d="M16.639 22.5275L13.4862 27.9882C11.9453 30.6571 8.10311 30.6743 6.58104 28.0163L0 16.6092L13.1313 16.5923C16.2244 16.6012 18.0956 19.9089 16.639 22.5275Z" fill="#15141B"/>
</svg>
