<svg width="24" height="24" viewBox="0 0 24 24" fill="none" xmlns="http://www.w3.org/2000/svg">
<path fill-rule="evenodd" clip-rule="evenodd" d="M9.65701 4.82838C9.65701 4.27609 10.1047 3.82838 10.657 3.82838L16.3139 3.82838C16.7183 3.82838 17.083 4.07202 17.2377 4.44569C17.3925 4.81937 17.307 5.24948 17.021 5.53548L8.53568 14.0208C8.14516 14.4113 7.512 14.4113 7.12147 14.0208C6.73095 13.6302 6.73095 12.9971 7.12147 12.6065L13.8996 5.82838L10.657 5.82838C10.1047 5.82838 9.65701 5.38066 9.65701 4.82838Z" fill="currentColor"/>
<path fill-rule="evenodd" clip-rule="evenodd" d="M14.4861 18.9705C14.4861 19.5227 14.0383 19.9705 13.4861 19.9705L7.82921 19.9705C7.42474 19.9705 7.06011 19.7268 6.90533 19.3531C6.75055 18.9795 6.8361 18.5493 7.1221 18.2633L15.6074 9.77806C15.9979 9.38754 16.6311 9.38754 17.0216 9.77806C17.4121 10.1686 17.4121 10.8018 17.0216 11.1923L10.2434 17.9705L13.4861 17.9705C14.0383 17.9705 14.4861 18.4182 14.4861 18.9705Z" fill="currentColor"/>
</svg>
