<svg width="24" height="24" viewBox="0 0 24 24" fill="none" xmlns="http://www.w3.org/2000/svg">
<g clip-path="url(#clip0_657_4082)">
<circle r="8.01196" transform="matrix(0.956305 0.292372 -0.482365 0.87597 13.2441 12.9449)" fill="currentColor" stroke="#EDEEFE"/>
<circle r="8.01196" transform="matrix(0.956305 0.292372 -0.482365 0.87597 10.4668 10.1607)" fill="currentColor" stroke="#EDEEFE"/>
<path d="M14.5194 8.17417L15.2118 8.38587C15.5287 8.48276 15.656 8.79661 15.4962 9.08688L15.4667 9.14034C15.3069 9.43061 14.9204 9.58738 14.6035 9.4905L14.4849 9.45422C14.168 9.35734 14.0407 9.04349 14.2005 8.75322L14.5194 8.17417Z" fill="#EDEEFE"/>
<path d="M13.8614 6.68242L14.5539 6.89412C14.8708 6.99101 14.9981 7.30486 14.8382 7.59513L14.5194 8.17417L13.2531 7.78705L13.8614 6.68242Z" fill="#EDEEFE"/>
<path d="M12.5952 6.2953L13.8614 6.68242L13.2531 7.78705L11.9869 7.39992L12.5952 6.2953Z" fill="#EDEEFE"/>
<path d="M12.2809 5.52269C12.4408 5.23242 12.8272 5.07565 13.1441 5.17253L13.2628 5.20881C13.5797 5.30569 13.707 5.61954 13.5472 5.90981L13.2283 6.48886L11.9621 6.10173L12.2809 5.52269Z" fill="#EDEEFE"/>
<path d="M11.329 5.90817L12.5952 6.2953L11.9869 7.39992L10.7207 7.0128L11.329 5.90817Z" fill="#EDEEFE"/>
<path d="M9.77332 6.04663C9.93316 5.75636 10.3196 5.59959 10.6365 5.69647L11.329 5.90817L10.7207 7.0128L9.45446 6.62567L9.77332 6.04663Z" fill="#EDEEFE"/>
<path d="M8.2379 8.83493L9.50413 9.22205L8.89585 10.3267L8.20341 10.115C7.88651 10.0181 7.7592 9.70424 7.91904 9.41397L8.2379 8.83493Z" fill="#EDEEFE"/>
<path d="M7.89881 6.76413C8.05865 6.47386 8.44512 6.31709 8.76201 6.41397L9.45446 6.62567L8.84618 7.7303L7.57995 7.34318L7.89881 6.76413Z" fill="#EDEEFE"/>
<path d="M7.57995 7.34318L8.84618 7.7303L8.2379 8.83493L7.54546 8.62322C7.22857 8.52634 7.10125 8.21249 7.26109 7.92222L7.57995 7.34318Z" fill="#EDEEFE"/>
<path d="M9.50413 9.22205L10.7704 9.60917L10.1621 10.7138L8.89585 10.3267L9.50413 9.22205Z" fill="#EDEEFE"/>
<path d="M10.7704 9.60917L12.0366 9.9963L11.4283 11.1009L10.1621 10.7138L10.7704 9.60917Z" fill="#EDEEFE"/>
<path d="M10.7455 8.31099L12.0117 8.69811L11.4035 9.80274L10.1372 9.41561L10.7455 8.31099Z" fill="#EDEEFE"/>
<path d="M8.92069 11.6249L10.1869 12.012L9.57863 13.1166L8.31241 12.7295L8.92069 11.6249Z" fill="#EDEEFE"/>
<path d="M11.3538 7.20636L12.62 7.59348L12.0117 8.69811L10.7455 8.31099L11.3538 7.20636Z" fill="#EDEEFE"/>
<path d="M9.52896 10.5202L10.7952 10.9074L10.1869 12.012L8.92069 11.6249L9.52896 10.5202Z" fill="#EDEEFE"/>
<path d="M12.0366 9.9963L12.729 10.208C13.0459 10.3049 13.1732 10.6187 13.0134 10.909L12.6945 11.488L11.4283 11.1009L12.0366 9.9963Z" fill="#EDEEFE"/>
<path d="M12.6945 11.488L13.387 11.6998C13.7039 11.7966 13.8312 12.1105 13.6713 12.4008L13.3525 12.9798L12.0863 12.5927L12.6945 11.488Z" fill="#EDEEFE"/>
<path d="M12.0863 12.5927L13.3525 12.9798L13.0336 13.5588C12.8738 13.8491 12.4873 14.0059 12.1704 13.909L11.478 13.6973L12.0863 12.5927Z" fill="#EDEEFE"/>
<path d="M10.2117 13.3102L11.478 13.6973L11.1591 14.2763C10.9993 14.5666 10.6128 14.7234 10.2959 14.6265L9.60347 14.4148L10.2117 13.3102Z" fill="#EDEEFE"/>
<path d="M8.94552 12.9231L10.2117 13.3102L9.60347 14.4148L8.33724 14.0277L8.94552 12.9231Z" fill="#EDEEFE"/>
<path d="M7.70413 13.8341L8.97036 14.2212L8.6515 14.8003C8.49166 15.0906 8.10519 15.2473 7.7883 15.1504L7.66963 15.1142C7.35274 15.0173 7.22543 14.7034 7.38527 14.4132L7.70413 13.8341Z" fill="#EDEEFE"/>
<path d="M7.67929 12.5359L8.94552 12.9231L8.33724 14.0277L7.07102 13.6406L7.67929 12.5359Z" fill="#EDEEFE"/>
<path d="M5.4657 11.1826C5.62554 10.8924 6.01201 10.7356 6.3289 10.8325L6.44756 10.8688C6.76445 10.9656 6.89177 11.2795 6.73193 11.5698L6.41307 12.1488L5.72062 11.9371C5.40373 11.8402 5.27642 11.5264 5.43626 11.2361L5.4657 11.1826Z" fill="#EDEEFE"/>
<path d="M6.41307 12.1488L7.67929 12.5359L7.07102 13.6406L6.37857 13.4289C6.06168 13.332 5.93437 13.0181 6.09421 12.7278L6.41307 12.1488Z" fill="#EDEEFE"/>
</g>
<defs>
<clipPath id="clip0_657_4082">
<rect width="24" height="24" fill="white"/>
</clipPath>
</defs>
</svg>
