<svg width="24" height="24" viewBox="0 0 24 24" fill="none" xmlns="http://www.w3.org/2000/svg">
<path fill-rule="evenodd" clip-rule="evenodd" d="M2.80965 3.1962C3.40226 2.44291 4.28864 2 5.36842 2H14.8421C15.9219 2 16.8083 2.44291 17.4009 3.1962C17.7642 3.65806 17.9934 4.20473 18.1118 4.78088H18.1579C20.2592 4.78088 22 6.45323 22 8.56177V12.1966C22 12.7489 21.5523 13.1966 21 13.1966C20.4477 13.1966 20 12.7489 20 12.1966V8.56177C20 7.59863 19.1959 6.78088 18.1579 6.78088H5.84211C4.8041 6.78088 4 7.59863 4 8.56177V15.9775C4 16.9406 4.8041 17.7583 5.84211 17.7583H18.5481L18.0096 17.2314C17.6148 16.8452 17.6079 16.2121 17.9942 15.8173C18.3804 15.4226 19.0136 15.4157 19.4083 15.8019L21.6994 18.0436C21.8916 18.2317 22 18.4893 22 18.7583C22 19.0273 21.8916 19.285 21.6994 19.4731L19.4083 21.7148C19.0136 22.101 18.3804 22.0941 17.9942 21.6994C17.6079 21.3046 17.6148 20.6715 18.0096 20.2852L18.5481 19.7583H5.84211C3.74081 19.7583 2 18.086 2 15.9775V5.78088C2 4.85301 2.23996 3.92035 2.80965 3.1962ZM4.05091 5.2168C4.58758 4.93806 5.1979 4.78088 5.84211 4.78088H16.0301C15.9729 4.64521 15.9046 4.52885 15.829 4.4328C15.6298 4.17961 15.332 4 14.8421 4H5.36842C4.87855 4 4.58072 4.17961 4.38153 4.4328C4.23451 4.61969 4.11494 4.88347 4.05091 5.2168ZM5.78947 8.48873C5.78947 7.93644 6.23719 7.48873 6.78947 7.48873H9.63158C10.1839 7.48873 10.6316 7.93644 10.6316 8.48873C10.6316 9.04101 10.1839 9.48873 9.63158 9.48873H6.78947C6.23719 9.48873 5.78947 9.04101 5.78947 8.48873Z" fill="currentColor"/>
</svg>
