<svg width="491" height="242" viewBox="0 0 491 242" fill="none" xmlns="http://www.w3.org/2000/svg">
<path d="M106.54 119.721L1 241H490V1L463.866 37.3326L450.297 28.6333L416.625 58.3134L405.066 50.1258L393.507 83.8998L373.906 92.0874L358.829 78.2708L354.306 58.3134L345.26 66.5011L322.644 50.1258L302.039 87.9936L293.495 78.2708L280.931 96.693L265.854 83.8998L255.803 92.0874L240.726 73.1535L212.079 119.721L202.53 113.068L193.484 137.119L174.386 153.495L166.848 123.814L154.284 137.119L140.714 134.049L132.171 145.307L106.54 119.721Z" fill="url(#paint0_linear_1780_5030)"/>
<path d="M1 241L106.54 119.721L132.171 145.307L140.714 134.049L154.284 137.119L166.848 123.815L174.386 153.495L193.484 137.119L202.53 113.068L212.079 119.721L240.726 73.1535L255.803 92.0874L265.854 83.8998L280.931 96.693L293.495 78.2708L302.039 87.9936L322.644 50.1258L345.26 66.5011L354.306 58.3134L358.829 78.2708L373.906 92.0874L393.507 83.8998L405.066 50.1258L416.625 58.3134L450.297 28.6333L463.866 37.3326L490 1" stroke="url(#paint1_linear_1780_5030)" stroke-width="2"/>
<defs>
<linearGradient id="paint0_linear_1780_5030" x1="245.5" y1="1" x2="245.5" y2="241" gradientUnits="userSpaceOnUse">
<stop stop-color="#F2F3F9"/>
<stop offset="1" stop-color="#F2F3F9" stop-opacity="0"/>
</linearGradient>
<linearGradient id="paint1_linear_1780_5030" x1="490" y1="1.00001" x2="0.999995" y2="246" gradientUnits="userSpaceOnUse">
<stop stop-color="#F9F9FC" stop-opacity="0"/>
<stop offset="0.558778" stop-color="#EDE8FF"/>
<stop offset="1" stop-color="#F3F4FA" stop-opacity="0"/>
</linearGradient>
</defs>
</svg>
