<svg width="491" height="242" viewBox="0 0 491 242" fill="none" xmlns="http://www.w3.org/2000/svg">
<path d="M1 241L106.54 119.721L132.171 145.307L140.714 134.049L154.284 137.119L166.848 123.815L174.386 153.495L193.484 137.119L202.53 113.068L212.079 119.721L240.726 73.1535L255.803 92.0874L265.854 83.8998L280.931 96.693L293.495 78.2708L302.039 87.9936L322.644 50.1258L345.26 66.5011L354.306 58.3134L358.829 78.2708L373.906 92.0874L393.507 83.8998L405.066 50.1258L416.625 58.3134L450.297 28.6333L463.866 37.3326L490 1" stroke="url(#paint0_linear_1745_5009)" stroke-width="2"/>
<defs>
<linearGradient id="paint0_linear_1745_5009" x1="490" y1="1.00001" x2="0.999995" y2="246" gradientUnits="userSpaceOnUse">
<stop stop-color="#F9F9FC" stop-opacity="0"/>
<stop offset="0.558778" stop-color="#EDE8FF"/>
<stop offset="1" stop-color="#F3F4FA" stop-opacity="0"/>
</linearGradient>
</defs>
</svg>
