<svg width="30" height="30" viewBox="0 0 30 30" fill="none" xmlns="http://www.w3.org/2000/svg">
    <path fill-rule="evenodd" clip-rule="evenodd"
        d="M26.2001 7.85008C26.6971 8.51282 26.5628 9.45303 25.9001 9.95008L17.7001 16.1001C16.1001 17.3001 13.9001 17.3001 12.3001 16.1001L4.10009 9.95015C3.43735 9.45309 3.30303 8.51289 3.80009 7.85015C4.29714 7.18741 5.23735 7.05309 5.90009 7.55015L14.1001 13.7001C14.6334 14.1001 15.3668 14.1001 15.9001 13.7001L24.1001 7.55009C24.7628 7.05303 25.703 7.18734 26.2001 7.85008Z"
        fill="currentColor" />
    <path fill-rule="evenodd" clip-rule="evenodd"
        d="M2.25 8.25C2.25 6.317 3.817 4.75 5.75 4.75H24.25C26.183 4.75 27.75 6.317 27.75 8.25V15C27.75 15.8284 27.0784 16.5 26.25 16.5C25.4216 16.5 24.75 15.8284 24.75 15V8.25C24.75 7.97386 24.5261 7.75 24.25 7.75H5.75C5.47386 7.75 5.25 7.97386 5.25 8.25V21.75C5.25 22.0261 5.47386 22.25 5.75 22.25H15C15.8284 22.25 16.5 22.9216 16.5 23.75C16.5 24.5784 15.8284 25.25 15 25.25H5.75C3.817 25.25 2.25 23.683 2.25 21.75V8.25Z"
        fill="currentColor" />
    <path fill-rule="evenodd" clip-rule="evenodd"
        d="M27.9357 18.9393C28.5214 19.5251 28.5214 20.4749 27.9357 21.0607L23.5607 25.4357C22.9749 26.0214 22.0251 26.0214 21.4393 25.4357L18.9393 22.9357C18.3536 22.3499 18.3536 21.4001 18.9393 20.8143C19.5251 20.2286 20.4749 20.2286 21.0607 20.8143L22.5 22.2537L25.8143 18.9393C26.4001 18.3536 27.3499 18.3536 27.9357 18.9393Z"
        fill="currentColor" />
</svg>