<svg width="20" height="20" viewBox="0 0 20 20" fill="none" xmlns="http://www.w3.org/2000/svg">
<path d="M10.0013 18.3327C14.6037 18.3327 18.3346 14.6017 18.3346 9.99935C18.3346 5.39698 14.6037 1.66602 10.0013 1.66602C5.39893 1.66602 1.66797 5.39698 1.66797 9.99935C1.66797 14.6017 5.39893 18.3327 10.0013 18.3327Z" fill="white"/>
<path fill-rule="evenodd" clip-rule="evenodd" d="M6.29387 6.29289C6.68439 5.90237 7.31756 5.90237 7.70808 6.29289L10.001 8.58579L12.2939 6.29289C12.6844 5.90237 13.3176 5.90237 13.7081 6.29289C14.0986 6.68342 14.0986 7.31658 13.7081 7.70711L11.4152 10L13.7081 12.2929C14.0986 12.6834 14.0986 13.3166 13.7081 13.7071C13.3176 14.0976 12.6844 14.0976 12.2939 13.7071L10.001 11.4142L7.70808 13.7071C7.31756 14.0976 6.68439 14.0976 6.29387 13.7071C5.90335 13.3166 5.90335 12.6834 6.29387 12.2929L8.58676 10L6.29387 7.70711C5.90335 7.31658 5.90335 6.68342 6.29387 6.29289Z" fill="#D2345A"/>
</svg>
