<svg width="14" height="14" viewBox="0 0 14 14" fill="none" xmlns="http://www.w3.org/2000/svg">
<path fill-rule="evenodd" clip-rule="evenodd" d="M3.79289 3.79289C4.18342 3.40237 4.81658 3.40237 5.20711 3.79289L7 5.58579L8.79289 3.79289C9.18342 3.40237 9.81658 3.40237 10.2071 3.79289C10.5976 4.18342 10.5976 4.81658 10.2071 5.20711L8.41421 7L10.2071 8.79289C10.5976 9.18342 10.5976 9.81658 10.2071 10.2071C9.81658 10.5976 9.18342 10.5976 8.79289 10.2071L7 8.41421L5.20711 10.2071C4.81658 10.5976 4.18342 10.5976 3.79289 10.2071C3.40237 9.81658 3.40237 9.18342 3.79289 8.79289L5.58579 7L3.79289 5.20711C3.40237 4.81658 3.40237 4.18342 3.79289 3.79289Z" fill="currentColor"/>
</svg>
