<svg width="14" height="14" viewBox="0 0 14 14" fill="none" xmlns="http://www.w3.org/2000/svg">
    <path
        d="M4.15625 6.15796C4.15625 5.05339 5.05168 4.15796 6.15625 4.15796H10.9984C12.1029 4.15796 12.9984 5.05339 12.9984 6.15796V11.0001C12.9984 12.1046 12.1029 13.0001 10.9984 13.0001H6.15625C5.05168 13.0001 4.15625 12.1046 4.15625 11.0001V6.15796Z"
        fill="currentColor" stroke="white" stroke-linecap="round" stroke-linejoin="round" />
    <path
        d="M1 3C1 1.89543 1.89543 1 3 1H7.8421C8.94667 1 9.8421 1.89543 9.8421 3V7.8421C9.8421 8.94667 8.94667 9.8421 7.8421 9.8421H3C1.89543 9.8421 1 8.94667 1 7.8421V3Z"
        fill="currentColor" stroke="white" stroke-linecap="round" stroke-linejoin="round" />
</svg>