<svg width="30" height="30" viewBox="0 0 30 30" fill="none" xmlns="http://www.w3.org/2000/svg">
    <path fill-rule="evenodd" clip-rule="evenodd"
        d="M26.2001 7.84984C26.6971 8.51258 26.5628 9.45278 25.9001 9.94984L17.7001 16.0999C16.1001 17.2999 13.9001 17.2999 12.3001 16.0999L4.10009 9.94991C3.43735 9.45285 3.30303 8.51265 3.80009 7.84991C4.29714 7.18716 5.23735 7.05285 5.90009 7.54991L14.1001 13.6999C14.6334 14.0999 15.3668 14.0999 15.9001 13.6999L24.1001 7.54985C24.7628 7.05279 25.703 7.1871 26.2001 7.84984Z"
        fill="currentColor" />
    <path fill-rule="evenodd" clip-rule="evenodd"
        d="M2.25 8.25C2.25 6.317 3.817 4.75 5.75 4.75H24.25C26.183 4.75 27.75 6.317 27.75 8.25V15C27.75 15.8284 27.0784 16.5 26.25 16.5C25.4216 16.5 24.75 15.8284 24.75 15V8.25C24.75 7.97386 24.5261 7.75 24.25 7.75H5.75C5.47386 7.75 5.25 7.97386 5.25 8.25V21.75C5.25 22.0261 5.47386 22.25 5.75 22.25H16.25C17.0784 22.25 17.75 22.9216 17.75 23.75C17.75 24.5784 17.0784 25.25 16.25 25.25H5.75C3.817 25.25 2.25 23.683 2.25 21.75V8.25Z"
        fill="currentColor" />
    <path fill-rule="evenodd" clip-rule="evenodd"
        d="M20.1893 18.9393C20.7751 18.3536 21.7249 18.3536 22.3107 18.9393L23.75 20.3787L25.1893 18.9393C25.7751 18.3536 26.7249 18.3536 27.3107 18.9393C27.8964 19.5251 27.8964 20.4749 27.3107 21.0607L25.8713 22.5L27.3107 23.9393C27.8964 24.5251 27.8964 25.4749 27.3107 26.0607C26.7249 26.6464 25.7751 26.6464 25.1893 26.0607L23.75 24.6213L22.3107 26.0607C21.7249 26.6464 20.7751 26.6464 20.1893 26.0607C19.6036 25.4749 19.6036 24.5251 20.1893 23.9393L21.6287 22.5L20.1893 21.0607C19.6036 20.4749 19.6036 19.5251 20.1893 18.9393Z"
        fill="currentColor" />
</svg>