<svg width="30" height="30" viewBox="0 0 30 30" fill="none" xmlns="http://www.w3.org/2000/svg">
    <path fill-rule="evenodd" clip-rule="evenodd"
        d="M2.25 8.25C2.25 6.317 3.817 4.75 5.75 4.75H24.25C26.183 4.75 27.75 6.317 27.75 8.25V20.75C27.75 23.2353 25.7353 25.25 23.25 25.25H6.75C4.26472 25.25 2.25 23.2353 2.25 20.75V8.25ZM6.16659 7.75L14.1 13.7001C14.6333 14.1001 15.3667 14.1001 15.9 13.7001L23.8333 7.75H6.16659ZM24.75 10.8125L17.7 16.1C16.1 17.3001 13.9 17.3001 12.3 16.1001L5.25 10.8126V20.75C5.25 21.5784 5.92157 22.25 6.75 22.25H23.25C24.0784 22.25 24.75 21.5784 24.75 20.75V10.8125Z"
        fill="currentColor" />
</svg>