<svg width="20" height="20" viewBox="0 0 20 20" fill="none" xmlns="http://www.w3.org/2000/svg">
<path d="M19.321 9.75C19.2975 9.6875 18.6335 8.21875 17.1647 6.74219C15.2038 4.78906 12.7272 3.75 10.0006 3.75C9.42481 3.74895 8.8499 3.79599 8.28189 3.89063C8.17214 3.91119 8.06979 3.96043 7.98522 4.03334C7.90065 4.10625 7.83688 4.20024 7.80038 4.30577C7.76389 4.4113 7.75596 4.5246 7.77741 4.63418C7.79886 4.74376 7.84892 4.84571 7.92252 4.92969L15.8366 13.6328C15.8951 13.6968 15.9663 13.7479 16.0457 13.7829C16.125 13.8178 16.2108 13.8359 16.2975 13.8359C16.4519 13.8339 16.6009 13.7787 16.7194 13.6797C18.5006 12.0781 19.2897 10.3281 19.321 10.2578C19.3556 10.1776 19.3734 10.0912 19.3734 10.0039C19.3734 9.91658 19.3556 9.83018 19.321 9.75V9.75Z" fill="#ACABB4"/>
<path d="M4.21067 2.70312C4.09775 2.58499 3.94306 2.51578 3.77973 2.51033C3.61641 2.50487 3.45744 2.5636 3.33689 2.67393C3.21634 2.78427 3.1438 2.93742 3.13481 3.10059C3.12582 3.26376 3.1811 3.42396 3.28879 3.54687L4.78879 5.19531C1.95286 6.9375 0.734106 9.625 0.679418 9.75C0.644807 9.83017 0.626953 9.91658 0.626953 10.0039C0.626953 10.0912 0.644807 10.1776 0.679418 10.2578C0.702856 10.3125 1.36692 11.7812 2.83567 13.2578C4.79661 15.2109 7.27317 16.25 9.99973 16.25C11.4009 16.2595 12.7881 15.972 14.07 15.4062L15.7888 17.2969C15.8473 17.3609 15.9185 17.412 15.9979 17.4469C16.0772 17.4819 16.163 17.5 16.2497 17.5C16.4056 17.4985 16.5556 17.4401 16.6716 17.3359C16.733 17.2811 16.7829 17.2145 16.8182 17.1401C16.8535 17.0657 16.8736 16.985 16.8772 16.9028C16.8809 16.8205 16.868 16.7383 16.8394 16.6611C16.8108 16.5839 16.767 16.5132 16.7107 16.4531L4.21067 2.70312ZM9.99973 12.8125C9.48576 12.8122 8.98171 12.671 8.54233 12.4043C8.10296 12.1377 7.74505 11.7557 7.5075 11.2999C7.26995 10.8441 7.16183 10.332 7.1949 9.81907C7.22796 9.30617 7.40094 8.81213 7.69504 8.39062L11.3825 12.4453C10.9618 12.6869 10.4849 12.8135 9.99973 12.8125V12.8125Z" fill="#ACABB4"/>
</svg>
