<svg width="20" height="20" viewBox="0 0 20 20" fill="none" xmlns="http://www.w3.org/2000/svg">
    <path
        d="M19.3202 9.75002C19.2968 9.68752 18.6327 8.21877 17.164 6.7422C15.203 4.78908 12.7265 3.75002 9.99991 3.75002C9.42408 3.74897 8.84916 3.79601 8.28116 3.89064C8.17141 3.91121 8.06906 3.96044 7.98449 4.03336C7.89992 4.10627 7.83615 4.20026 7.79965 4.30578C7.76315 4.41131 7.75523 4.52462 7.77668 4.6342C7.79813 4.74378 7.84819 4.84573 7.92178 4.9297L15.8358 13.6328C15.8944 13.6968 15.9656 13.7479 16.0449 13.7829C16.1243 13.8179 16.2101 13.8359 16.2968 13.836C16.4512 13.8339 16.6002 13.7787 16.7187 13.6797C18.4999 12.0781 19.289 10.3281 19.3202 10.2578C19.3548 10.1777 19.3727 10.0913 19.3727 10.0039C19.3727 9.9166 19.3548 9.83019 19.3202 9.75002V9.75002Z"
        fill="currentColor" />
    <path
        d="M4.21091 2.70291C4.098 2.58478 3.9433 2.51557 3.77998 2.51011C3.61665 2.50466 3.45769 2.56339 3.33714 2.67372C3.21659 2.78405 3.14405 2.93721 3.13506 3.10038C3.12607 3.26355 3.18134 3.42375 3.28904 3.54666L4.78904 5.1951C1.9531 6.93728 0.73435 9.62478 0.679662 9.74978C0.645051 9.82996 0.627197 9.91636 0.627197 10.0037C0.627197 10.091 0.645051 10.1774 0.679662 10.2576C0.7031 10.3123 1.36716 11.781 2.83591 13.2576C4.79685 15.2107 7.27341 16.2498 9.99998 16.2498C11.4011 16.2593 12.7884 15.9718 14.0703 15.406L15.789 17.2967C15.8476 17.3606 15.9188 17.4117 15.9981 17.4467C16.0775 17.4817 16.1633 17.4998 16.25 17.4998C16.4059 17.4983 16.5559 17.4399 16.6718 17.3357C16.7333 17.2809 16.7831 17.2143 16.8184 17.1399C16.8538 17.0655 16.8738 16.9848 16.8775 16.9025C16.8811 16.8203 16.8682 16.7381 16.8396 16.6609C16.811 16.5837 16.7673 16.513 16.7109 16.4529L4.21091 2.70291ZM9.99998 12.8123C9.48601 12.8119 8.98196 12.6708 8.54258 12.4041C8.1032 12.1374 7.7453 11.7555 7.50775 11.2997C7.27019 10.8439 7.16208 10.3318 7.19514 9.81886C7.2282 9.30595 7.40118 8.81191 7.69529 8.39041L11.3828 12.4451C10.962 12.6867 10.4851 12.8133 9.99998 12.8123V12.8123Z"
        fill="currentColor" />
</svg>