<svg width="24" height="24" viewBox="0 0 24 24" fill="none" xmlns="http://www.w3.org/2000/svg">
<path fill-rule="evenodd" clip-rule="evenodd" d="M12 6C8.17084 6 4.89784 8.39171 3.5981 11.7663C3.54022 11.9165 3.54022 12.0835 3.5981 12.2337C4.89784 15.6083 8.17084 18 12 18C15.8291 18 19.1021 15.6083 20.4018 12.2337C20.4597 12.0835 20.4597 11.9165 20.4018 11.7663C19.1021 8.39172 15.8291 6 12 6ZM1.73175 11.0474C3.31889 6.92667 7.31641 4 12 4C16.6835 4 20.681 6.92668 22.2682 11.0474C22.5043 11.6604 22.5043 12.3396 22.2682 12.9526C20.681 17.0733 16.6835 20 12 20C7.31641 20 3.31889 17.0733 1.73175 12.9526C1.49567 12.3396 1.49567 11.6604 1.73175 11.0474Z" fill="#15141B"/>
<path fill-rule="evenodd" clip-rule="evenodd" d="M12 10C10.8954 10 9.99997 10.8954 9.99997 12C9.99997 13.1046 10.8954 14 12 14C13.1045 14 14 13.1046 14 12C14 10.8954 13.1045 10 12 10ZM7.99997 12C7.99997 9.79086 9.79083 8 12 8C14.2091 8 16 9.79086 16 12C16 14.2091 14.2091 16 12 16C9.79083 16 7.99997 14.2091 7.99997 12Z" fill="#15141B"/>
</svg>
