<svg width="24" height="24" viewBox="0 0 24 24" fill="none" xmlns="http://www.w3.org/2000/svg">
    <path
        d="M0 12.0603C0 18.0301 4.32 22.9749 10.02 24L10.0909 23.9417L10.08 23.9397V15.4372H7.08V12.0603H10.08V9.40703C10.08 6.39196 12 4.70352 14.76 4.70352C15.6 4.70352 16.56 4.82412 17.4 4.94472V8.0201H15.84C14.4 8.0201 14.04 8.74372 14.04 9.70854V12.0603H17.22L16.68 15.4372H14.04V23.9397V23.9891C19.7103 22.9401 24 18.0092 24 12.0603C24 5.42714 18.6 0 12 0C5.4 0 0 5.42714 0 12.0603Z"
        fill="currentColor" />
</svg>