<svg width="24" height="24" viewBox="0 0 24 24" fill="none" xmlns="http://www.w3.org/2000/svg">
<path fill-rule="evenodd" clip-rule="evenodd" d="M10.8203 2.72014C11.1427 2.42587 11.5634 2.2627 12 2.2627C12.4366 2.2627 12.8573 2.42587 13.1797 2.72014C13.1802 2.7206 13.1807 2.72106 13.1812 2.72151L20.6788 9.53489L20.0062 10.275L20.6929 9.54794C20.8653 9.71081 21.0035 9.90655 21.0991 10.1236C21.1948 10.3407 21.246 10.5747 21.2499 10.8119L21.25 10.8281V19.5C21.25 19.9641 21.0656 20.4092 20.7374 20.7374C20.4092 21.0656 19.9641 21.25 19.5 21.25H4.5C4.03587 21.25 3.59075 21.0656 3.26256 20.7374C2.93437 20.4092 2.75 19.9641 2.75 19.5V10.8281L2.75013 10.8119C2.75397 10.5747 2.80523 10.3407 2.90089 10.1236C2.99654 9.90655 3.13467 9.71081 3.30713 9.54794L3.32122 9.53489L10.8188 2.72151C10.8193 2.72106 10.8198 2.7206 10.8203 2.72014ZM19.25 10.9389L12 4.35051L4.75 10.9389V19.25H19.25V10.9389Z" fill="currentColor"/>
</svg>
