<svg width="21" height="21" viewBox="0 0 21 21" fill="none" xmlns="http://www.w3.org/2000/svg">
    <path
        d="M10.9996 -0.0010376C16.5233 -0.0010376 21.0011 4.47681 21.0011 10.0005C21.0011 15.5242 16.5233 20.0021 10.9996 20.0021C5.47589 20.0021 0.998047 15.5242 0.998047 10.0005C0.998047 4.47681 5.47589 -0.0010376 10.9996 -0.0010376ZM10.9958 8.24955C10.483 8.24988 10.0605 8.6362 10.0031 9.13357L9.99644 9.2502L10 14.7518L10.0068 14.8684C10.0649 15.3657 10.4879 15.7515 11.0007 15.7511C11.5135 15.7508 11.936 15.3645 11.9934 14.8671L12 14.7505L11.9964 9.24889L11.9896 9.13227C11.9316 8.63497 11.5086 8.24921 10.9958 8.24955ZM11 4.5C10.3089 4.5 9.74853 5.06032 9.74853 5.75152C9.74853 6.44271 10.3089 7.00304 11 7.00304C11.6912 7.00304 12.2516 6.44271 12.2516 5.75152C12.2516 5.06032 11.6912 4.5 11 4.5Z"
        fill="currentColor" />
</svg>