<svg width="24" height="24" viewBox="0 0 24 24" fill="none" xmlns="http://www.w3.org/2000/svg">
    <path
        d="M6.34233 10.5858C6.73285 10.1953 7.36601 10.1953 7.75654 10.5858C8.11917 10.9484 8.14507 11.5202 7.83425 11.9128L7.75654 12L6.34233 13.4142C5.17075 14.5858 5.17075 16.4853 6.34233 17.6568C7.47206 18.7866 9.27864 18.8269 10.4567 17.7779L10.585 17.6568L11.9992 16.2426C12.3897 15.8521 13.0229 15.8521 13.4134 16.2426C13.776 16.6053 13.8019 17.1771 13.4911 17.5696L13.4134 17.6568L11.9992 19.0711C10.0466 21.0237 6.88073 21.0237 4.92811 19.0711C3.02688 17.1698 2.97684 14.1184 4.77801 12.1566L4.92811 12L6.34233 10.5858ZM11.9992 4.92892C13.9518 2.9763 17.1176 2.9763 19.0702 4.92892C20.9715 6.83016 21.0215 9.88158 19.2203 11.8434L19.0702 12L17.656 13.4142C17.2655 13.8047 16.6323 13.8047 16.2418 13.4142C15.8792 13.0516 15.8533 12.4797 16.1641 12.0872L16.2418 12L17.656 10.5858C18.8276 9.4142 18.8276 7.51471 17.656 6.34313C16.5263 5.2134 14.7197 5.17306 13.5416 6.22209L13.4134 6.34313L11.9992 7.75735C11.6087 8.14787 10.9755 8.14787 10.585 7.75735C10.2223 7.39472 10.1964 6.82287 10.5073 6.43036L10.585 6.34313L11.9992 4.92892ZM7.75654 14.8284L14.8276 7.75735C15.2181 7.36682 15.8513 7.36682 16.2418 7.75735C16.6045 8.11998 16.6304 8.69182 16.3195 9.08434L16.2418 9.17156L9.17075 16.2426C8.78023 16.6332 8.14706 16.6332 7.75654 16.2426C7.39391 15.88 7.36801 15.3082 7.67883 14.9156L7.75654 14.8284L14.8276 7.75735L7.75654 14.8284Z"
        fill="currentColor" />
</svg>