<svg width="24" height="24" viewBox="0 0 24 24" fill="none" xmlns="http://www.w3.org/2000/svg">
<path d="M17.7143 8H6.28571C5.02335 8 4 8.97005 4 10.1667V18.8333C4 20.03 5.02335 21 6.28571 21H17.7143C18.9767 21 20 20.03 20 18.8333V10.1667C20 8.97005 18.9767 8 17.7143 8Z" fill="currentColor"/>
<path fill-rule="evenodd" clip-rule="evenodd" d="M12 3C9.75199 3 8 4.7394 8 6.8V8C8 8.55229 7.55228 9 7 9C6.44772 9 6 8.55229 6 8V6.8C6 3.55867 8.72516 1 12 1C15.2748 1 18 3.55866 18 6.8V8C18 8.55229 17.5523 9 17 9C16.4477 9 16 8.55229 16 8V6.8C16 4.7394 14.248 3 12 3Z" fill="currentColor"/>
<path fill-rule="evenodd" clip-rule="evenodd" d="M12 11C12.5523 11 13 11.4477 13 12V17C13 17.5523 12.5523 18 12 18C11.4477 18 11 17.5523 11 17V12C11 11.4477 11.4477 11 12 11Z" fill="currentColor"/>
</svg>
