<svg width="40" height="40" viewBox="0 0 40 40" fill="none" xmlns="http://www.w3.org/2000/svg">
    <path
        d="M36.5012 24.4596C22.2385 40.2763 11.8276 38.1862 8.89341 37.116C4.69377 35.5886 2.09231 31.8254 2.10743 27.2984C2.12256 21.2792 5.27355 15.27 10.9857 10.3864C16.1634 5.95989 22.9998 2.89503 29.2715 2.19664C33.0628 1.7746 35.9466 2.79956 37.1868 5.01531C38.5632 7.47222 37.7111 11.0797 34.8979 14.6621C32.2813 17.9933 22.2536 26.2784 11.3134 26.1227V23.1483L7.32548 27.1225L11.3134 31.0968V28.2178C22.7981 28.3686 33.2846 20.1236 36.5566 15.9534C39.9093 11.6827 40.8319 7.21097 39.0219 3.99035C37.3481 1.00085 33.7031 -0.416031 29.0345 0.106504C15.3265 1.63894 0.030304 13.1799 5.44662e-05 27.2934C-0.0150703 32.7247 3.1208 37.2466 8.17247 39.0856C9.85132 39.6985 11.631 40 13.4813 40C21.0033 40 29.7303 35.046 37.9985 25.9468L40 27.9415V22.3192H34.3585L36.5012 24.4596Z"
        fill="currentColor" />
</svg>