<svg width="127" height="24" viewBox="0 0 127 24" fill="none" xmlns="http://www.w3.org/2000/svg">
<path d="M0 0.0394544H3.22291L7.9048 19.9661L13.2534 0.0394544H16.6736L21.9535 19.9661L26.8028 0.0394544H29.924L23.6127 23.8851H20.3241L14.8768 3.9253L9.36378 23.8851H6.07509L0 0.0394544Z" fill="#15141B"/>
<path d="M51.6471 0.039363V23.885H48.5259V12.7339H36.0378V23.885H32.9136V0.039363H36.0348V9.9846H48.5229V0.039363H51.6471Z" fill="#15141B"/>
<path d="M60.1489 0.039363V23.885H57.0276V0.039363H60.1489Z" fill="#15141B"/>
<path d="M81.9004 0.039363V2.78568H73.9627V23.885H70.8414V2.78568H62.9037V0.039363H81.9004Z" fill="#15141B"/>
<path d="M126.566 0.039363L118.695 11.5944L127 23.885H123.212L116.835 14.0724L110.225 23.885H106.637L114.972 11.5944L107.166 0.039363H110.921L116.865 9.21587L123.009 0.039363H126.566Z" fill="#15141B"/>
<path d="M103.807 14.6758C95.3494 24.1658 89.1757 22.9117 87.4356 22.2696C84.9452 21.3532 83.4025 19.0952 83.4115 16.379C83.4205 12.7675 85.289 9.16203 88.6764 6.23182C91.7468 3.57593 95.8009 1.73702 99.5201 1.31799C101.768 1.06476 103.478 1.67974 104.214 3.00918C105.03 4.48333 104.525 6.64784 102.857 8.79726C101.305 10.796 95.3584 15.7671 88.8707 15.6736V13.889L86.5058 16.2735L88.8707 18.6581V16.9307C95.6813 17.0211 101.9 12.0742 103.84 9.57202C105.828 7.00959 106.375 4.32658 105.302 2.39421C104.31 0.600508 102.148 -0.249618 99.3796 0.0639023C91.2505 0.983362 82.1797 7.90795 82.1618 16.376C82.1528 19.6348 84.0124 22.348 87.0081 23.4513C88.0037 23.8191 89.0591 24 90.1563 24C94.6169 24 99.7921 21.0276 104.695 15.5681L105.882 16.7649V13.3915H102.537L103.807 14.6758Z" fill="#7449F0"/>
</svg>
