<svg width="30" height="30" viewBox="0 0 30 30" fill="none" xmlns="http://www.w3.org/2000/svg">
    <path fill-rule="evenodd" clip-rule="evenodd"
        d="M8.5 7.5C8.5 4.60051 10.8505 2.25 13.75 2.25H16.25C19.1495 2.25 21.5 4.60051 21.5 7.5V9.96741C23.6686 10.6128 25.25 12.6217 25.25 15V22.5C25.25 25.3995 22.8995 27.75 20 27.75H10C7.10051 27.75 4.75 25.3995 4.75 22.5V15C4.75 12.6217 6.33138 10.6128 8.5 9.96741V7.5ZM11.5 9.75H18.5V7.5C18.5 6.25736 17.4926 5.25 16.25 5.25H13.75C12.5074 5.25 11.5 6.25736 11.5 7.5V9.75ZM10 12.75C8.75736 12.75 7.75 13.7574 7.75 15V22.5C7.75 23.7426 8.75736 24.75 10 24.75H20C21.2426 24.75 22.25 23.7426 22.25 22.5V15C22.25 13.7574 21.2426 12.75 20 12.75H10ZM12.25 17.5C12.25 15.9812 13.4812 14.75 15 14.75C16.5188 14.75 17.75 15.9812 17.75 17.5C17.75 18.4654 17.2526 19.3146 16.5 19.8053V21.25C16.5 22.0784 15.8284 22.75 15 22.75C14.1716 22.75 13.5 22.0784 13.5 21.25V19.8053C12.7474 19.3146 12.25 18.4654 12.25 17.5Z"
        fill="currentColor" />
</svg>