<svg width="24" height="24" viewBox="0 0 24 24" fill="none" xmlns="http://www.w3.org/2000/svg">
    <path fill-rule="evenodd" clip-rule="evenodd"
        d="M24 12C24 18.6274 18.6274 24 12 24C5.37258 24 0 18.6274 0 12C0 5.37258 5.37258 0 12 0C18.6274 0 24 5.37258 24 12ZM19.9428 12.4872C19.986 12.3285 20.0064 12.1644 20.004 12C19.9917 11.6622 19.8819 11.3351 19.6878 11.0583C19.4938 10.7815 19.2238 10.5668 18.9105 10.44C18.5972 10.3132 18.2539 10.2797 17.922 10.3437C17.5901 10.4075 17.2838 10.5659 17.04 10.8C16.7009 10.5695 16.3457 10.3638 15.9771 10.1844C15.239 9.82478 14.4529 9.57359 13.6431 9.4386C13.2387 9.3711 12.8298 9.3327 12.42 9.324L13.2 5.58L15.768 6.12C15.831 6.7062 16.3107 7.1598 16.8996 7.1901C17.4882 7.2204 18.012 6.8184 18.1347 6.2418C18.2577 5.6652 17.9433 5.0847 17.3934 4.8723C16.8435 4.6599 16.2207 4.8783 15.924 5.388L12.984 4.8C12.936 4.7895 12.8862 4.7886 12.8379 4.7973C12.7893 4.8063 12.7431 4.8246 12.7017 4.8513C12.6606 4.878 12.6249 4.9128 12.5973 4.9533C12.5694 4.9941 12.5499 5.0397 12.54 5.088L11.652 9.252C11.2371 9.2583 10.8231 9.2946 10.4136 9.3609C10.0041 9.4272 9.5997 9.5229 9.204 9.6477C8.8083 9.7725 8.4222 9.9261 8.0487 10.1067C7.67529 10.2876 7.31545 10.4952 6.972 10.728C6.78699 10.554 6.56635 10.4222 6.32537 10.3419C6.08438 10.2616 5.82883 10.2347 5.5764 10.263C5.32401 10.2912 5.08076 10.3739 4.86355 10.5055C4.64634 10.6371 4.46035 10.8143 4.3185 11.025C4.17652 11.2357 4.08206 11.4747 4.04166 11.7255C4.00125 11.9764 4.01587 12.233 4.0845 12.4776C4.15325 12.7221 4.2743 12.9488 4.43928 13.1419C4.60426 13.335 4.80923 13.4899 5.04 13.596C5.0367 13.6398 5.034 13.6839 5.0325 13.728C5.02889 13.816 5.02889 13.904 5.0325 13.992C5.034 14.0361 5.0367 14.0802 5.04 14.124C5.04 16.812 8.172 18.996 12.036 18.996C15.9 18.996 19.032 16.812 19.032 14.124C19.0353 14.0802 19.038 14.0361 19.0395 13.992C19.0431 13.904 19.0431 13.816 19.0395 13.728C19.038 13.6839 19.0353 13.6398 19.032 13.596C19.1793 13.5228 19.3155 13.4292 19.4367 13.3179C19.5579 13.2066 19.6629 13.0788 19.7484 12.9384C19.8342 12.798 19.8996 12.6459 19.9428 12.4872ZM8.0952 13.6593C8.1558 13.8048 8.244 13.9371 8.3556 14.0484C8.4669 14.16 8.5992 14.2482 8.7447 14.3088C8.89034 14.369 9.0464 14.4 9.204 14.4C9.6894 14.4 10.1268 14.1075 10.3128 13.6593C10.4985 13.2108 10.3956 12.6948 10.0524 12.3516C9.7092 12.0084 9.1932 11.9055 8.7447 12.0912C8.2965 12.2772 8.004 12.7146 8.004 13.2C8.004 13.3575 8.0349 13.5135 8.0952 13.6593ZM14.9682 16.5399C15.0297 16.4799 15.0648 16.398 15.066 16.3122C15.0672 16.2261 15.0339 16.1433 14.9739 16.0818C14.9139 16.0203 14.832 15.9852 14.7462 15.984C14.6601 15.9828 14.5773 16.0161 14.508 16.068C14.3276 16.1974 14.1365 16.3113 13.9368 16.4085C13.7371 16.5057 13.5296 16.5859 13.3164 16.6482C13.1034 16.7103 12.8853 16.7544 12.6648 16.7799C12.444 16.8054 12.2217 16.812 12 16.8C11.7786 16.8099 11.5566 16.8009 11.3367 16.7733C11.1167 16.746 10.8995 16.6998 10.6875 16.6353C10.4751 16.5711 10.269 16.4889 10.0707 16.3899C9.8724 16.2909 9.6828 16.1751 9.504 16.044C9.4419 15.993 9.363 15.9669 9.2826 15.9708C9.2022 15.9747 9.1263 16.0086 9.0693 16.0653C9.0126 16.1223 8.9787 16.1982 8.9748 16.2786C8.9709 16.359 8.997 16.4379 9.048 16.5C9.2589 16.659 9.483 16.7994 9.7179 16.92C9.9528 17.0406 10.1979 17.1405 10.4499 17.2191C10.7019 17.2977 10.9602 17.3544 11.2221 17.3889C11.484 17.4231 11.7483 17.4348 12.012 17.424C12.2757 17.4348 12.54 17.4231 12.8019 17.3889C13.3265 17.3199 13.8353 17.1613 14.3061 16.92C14.541 16.7994 14.7651 16.659 14.976 16.5L14.9682 16.5399ZM14.748 14.496C14.9106 14.4978 15.072 14.4663 15.2223 14.4039C15.3726 14.3412 15.5085 14.2488 15.6219 14.1321C15.7353 14.0154 15.8235 13.8768 15.8817 13.7247C15.9399 13.5728 15.9666 13.4106 15.96 13.248C15.96 12.7626 15.6675 12.3252 15.2193 12.1392C14.7708 11.9535 14.2548 12.0564 13.9116 12.3996C13.5684 12.7428 13.4655 13.2588 13.6512 13.7073C13.8372 14.1555 14.2746 14.448 14.76 14.448L14.748 14.496Z"
        fill="currentColor" />
</svg>