<svg width="16" height="16" viewBox="0 0 16 16" fill="none" xmlns="http://www.w3.org/2000/svg">
    <path
        d="M16 8C16.0019 8.27107 15.9195 8.53602 15.7641 8.75809C15.6087 8.98017 15.3881 9.14834 15.1328 9.23926L10.8217 10.8255L9.236 15.1381C9.14214 15.3911 8.97312 15.6093 8.75167 15.7633C8.53022 15.9174 8.26693 16 7.99718 16C7.72744 16 7.46415 15.9174 7.2427 15.7633C7.02125 15.6093 6.85223 15.3911 6.75836 15.1381L5.17267 10.8255L0.861578 9.23926C0.608691 9.14536 0.390588 8.97628 0.236571 8.75475C0.0825539 8.53322 0 8.26984 0 8C0 7.73016 0.0825539 7.46678 0.236571 7.24525C0.390588 7.02372 0.608691 6.85464 0.861578 6.76074L5.17267 5.1745L6.75836 0.861881C6.85223 0.608905 7.02125 0.390726 7.2427 0.236654C7.46415 0.0825829 7.72744 0 7.99718 0C8.26693 0 8.53022 0.0825829 8.75167 0.236654C8.97312 0.390726 9.14214 0.608905 9.236 0.861881L10.8217 5.1745L15.1328 6.76074C15.3881 6.85167 15.6087 7.01983 15.7641 7.24191C15.9195 7.46398 16.0019 7.72893 16 8Z"
        fill="currentColor" />
</svg>