<svg width="20" height="20" viewBox="0 0 20 20" fill="none" xmlns="http://www.w3.org/2000/svg">
    <path
        d="M20 10C20.0024 10.3388 19.8994 10.67 19.7051 10.9476C19.5109 11.2252 19.2351 11.4354 18.916 11.5491L13.5271 13.5319L11.545 18.9226C11.4277 19.2389 11.2164 19.5116 10.9396 19.7042C10.6628 19.8968 10.3337 20 9.99648 20C9.6593 20 9.33019 19.8968 9.05337 19.7042C8.77656 19.5116 8.56529 19.2389 8.44796 18.9226L6.46584 13.5319L1.07697 11.5491C0.760863 11.4317 0.488235 11.2204 0.295714 10.9434C0.103192 10.6665 0 10.3373 0 10C0 9.6627 0.103192 9.33348 0.295714 9.05656C0.488235 8.77965 0.760863 8.56831 1.07697 8.45093L6.46584 6.46812L8.44796 1.07735C8.56529 0.761131 8.77656 0.488407 9.05337 0.295818C9.33019 0.103229 9.6593 0 9.99648 0C10.3337 0 10.6628 0.103229 10.9396 0.295818C11.2164 0.488407 11.4277 0.761131 11.545 1.07735L13.5271 6.46812L18.916 8.45093C19.2351 8.56458 19.5109 8.77479 19.7051 9.05238C19.8994 9.32997 20.0024 9.66117 20 10Z"
        fill="currentColor" />
</svg>