<svg width="12" height="12" viewBox="0 0 12 12" fill="none" xmlns="http://www.w3.org/2000/svg">
    <path
        d="M12 6C12.0015 6.2033 11.9396 6.40202 11.8231 6.56857C11.7065 6.73512 11.5411 6.86125 11.3496 6.92944L8.11627 8.11913L6.927 11.3536C6.8566 11.5433 6.72984 11.707 6.56375 11.8225C6.39766 11.9381 6.2002 12 5.99789 12C5.79558 12 5.59811 11.9381 5.43202 11.8225C5.26593 11.707 5.13917 11.5433 5.06877 11.3536L3.87951 8.11913L0.646183 6.92944C0.456518 6.85902 0.292941 6.73221 0.177428 6.56606C0.0619154 6.39991 0 6.20238 0 6C0 5.79762 0.0619154 5.60009 0.177428 5.43394C0.292941 5.26779 0.456518 5.14098 0.646183 5.07056L3.87951 3.88087L5.06877 0.646411C5.13917 0.456679 5.26593 0.293044 5.43202 0.177491C5.59811 0.0619372 5.79558 0 5.99789 0C6.2002 0 6.39766 0.0619372 6.56375 0.177491C6.72984 0.293044 6.8566 0.456679 6.927 0.646411L8.11627 3.88087L11.3496 5.07056C11.5411 5.13875 11.7065 5.26488 11.8231 5.43143C11.9396 5.59798 12.0015 5.7967 12 6Z"
        fill="currentColor" />
</svg>