<svg width="24" height="24" viewBox="0 0 24 24" fill="none" xmlns="http://www.w3.org/2000/svg">
    <path fill-rule="evenodd" clip-rule="evenodd"
        d="M24 12C24 18.6274 18.6274 24 12 24C5.37258 24 0 18.6274 0 12C0 5.37258 5.37258 0 12 0C18.6274 0 24 5.37258 24 12ZM12.4197 8.85262C11.2506 9.34221 8.92256 10.3514 5.42548 11.8701C4.86594 12.0999 4.5662 12.3197 4.53622 12.5395C4.49197 12.9112 4.95721 13.0556 5.58481 13.2504C5.6658 13.2755 5.74949 13.3015 5.83514 13.3289C6.45462 13.5287 7.27394 13.7585 7.70358 13.7685C8.09326 13.7785 8.5229 13.6187 9.0025 13.2889C12.2698 11.0808 13.9484 9.9617 14.0583 9.94172C14.1382 9.92173 14.2381 9.90175 14.3081 9.9617C14.378 10.0216 14.378 10.1415 14.368 10.1715C14.3204 10.3701 12.3712 12.1797 11.4842 13.0032C11.2556 13.2153 11.0976 13.362 11.0608 13.3988C10.9671 13.4953 10.8717 13.5866 10.7799 13.6745C10.2064 14.2234 9.77598 14.6354 10.801 15.3072C11.267 15.6149 11.6428 15.8713 12.0129 16.1238C12.4603 16.429 12.8992 16.7285 13.4788 17.1057C13.6153 17.1954 13.746 17.2884 13.8736 17.3791C14.3713 17.7332 14.8204 18.0527 15.3772 18.005C15.6969 17.975 16.0266 17.6753 16.1965 16.776C16.5962 14.6578 17.3755 10.0516 17.5554 8.1532C17.5754 7.99334 17.5554 7.78351 17.5354 7.6836C17.5154 7.58368 17.4854 7.45379 17.3655 7.35387C17.2157 7.23397 16.9958 7.21399 16.8959 7.21399C16.4463 7.22398 15.7469 7.46378 12.4197 8.85262Z"
        fill="currentColor" />
</svg>