<svg width="74" height="27" viewBox="0 0 74 27" fill="none" xmlns="http://www.w3.org/2000/svg">
<circle cx="60.5" cy="13.5" r="13" fill="#EB7AC3" stroke="white"/>
<path d="M59.5309 3.8V7H61.4309V3.8H59.5309ZM59.5309 19.44V22.4H61.4309V19.44H59.5309ZM55.3909 16.3C55.4442 17.2733 55.6709 18.0533 56.0709 18.64C56.4709 19.2133 57.0509 19.6267 57.8109 19.88C58.5709 20.12 59.5242 20.24 60.6709 20.24C61.7375 20.24 62.6309 20.1067 63.3509 19.84C64.0842 19.56 64.6375 19.1267 65.0109 18.54C65.3842 17.94 65.5709 17.1533 65.5709 16.18C65.5709 15.46 65.4575 14.8667 65.2309 14.4C65.0175 13.9333 64.7175 13.5667 64.3309 13.3C63.9575 13.0333 63.5375 12.8267 63.0709 12.68C62.6042 12.5333 62.1175 12.42 61.6109 12.34C61.1042 12.2467 60.6175 12.16 60.1509 12.08C59.6842 11.9867 59.2575 11.8667 58.8709 11.72C58.4975 11.56 58.1975 11.34 57.9709 11.06C57.7575 10.7667 57.6509 10.3733 57.6509 9.88C57.6509 9.02667 57.8842 8.44 58.3509 8.12C58.8309 7.78667 59.5175 7.62 60.4109 7.62C61.2375 7.62 61.8909 7.76 62.3709 8.04C62.8642 8.30667 63.1375 8.84667 63.1909 9.66H65.3309C65.2642 8.31333 64.8042 7.36 63.9509 6.8C63.0975 6.24 61.9175 5.96 60.4109 5.96C58.8775 5.96 57.6909 6.28 56.8509 6.92C56.0242 7.54667 55.6109 8.54 55.6109 9.9C55.6109 10.6333 55.7175 11.2333 55.9309 11.7C56.1575 12.1533 56.4575 12.5133 56.8309 12.78C57.2175 13.0467 57.6442 13.2533 58.1109 13.4C58.5775 13.5333 59.0642 13.64 59.5709 13.72C60.0775 13.8 60.5642 13.8867 61.0309 13.98C61.4975 14.06 61.9175 14.18 62.2909 14.34C62.6775 14.5 62.9775 14.7333 63.1909 15.04C63.4175 15.3467 63.5309 15.76 63.5309 16.28C63.5309 16.84 63.4242 17.2867 63.2109 17.62C62.9975 17.9533 62.6709 18.2 62.2309 18.36C61.8042 18.5067 61.2775 18.58 60.6509 18.58C59.9709 18.58 59.4042 18.52 58.9509 18.4C58.5109 18.2667 58.1709 18.0333 57.9309 17.7C57.7042 17.3667 57.5709 16.9 57.5309 16.3H55.3909Z" fill="white"/>
<circle cx="37.5" cy="13.5" r="13" fill="#484DF8" stroke="white"/>
<path d="M33 17C33 18.0609 33.4741 19.0783 34.318 19.8284C35.1619 20.5786 36.3065 21 37.5 21C38.6935 21 39.8381 20.5786 40.682 19.8284C41.5259 19.0783 42 18.0609 42 17H33Z" fill="white"/>
<rect x="31" y="9" width="3" height="3" rx="1.5" fill="white"/>
<rect x="41" y="9" width="3" height="3" rx="1.5" fill="white"/>
<path d="M13.501 0.5H13.5C10.9288 0.5 8.41543 1.26244 6.27759 2.69089C4.13975 4.11935 2.47351 6.14967 1.48957 8.52511C0.505632 10.9006 0.248189 13.5144 0.749797 16.0362C1.2514 18.5579 2.48953 20.8743 4.30762 22.6924C6.1257 24.5105 8.44208 25.7486 10.9638 26.2502C13.4856 26.7518 16.0994 26.4944 18.4749 25.5104C20.8503 24.5265 22.8806 22.8602 24.3091 20.7224C25.7376 18.5846 26.5 16.0712 26.5 13.5V13.499C26.4934 10.0535 25.1217 6.75099 22.6854 4.31463C20.249 1.87827 16.9465 0.506608 13.501 0.5Z" fill="#46C053" stroke="white"/>
<rect x="7" y="9" width="3" height="3" rx="1.5" fill="white"/>
<rect x="17" y="9" width="3" height="3" rx="1.5" fill="white"/>
<path d="M8 16C8 17.3261 8.57946 18.5979 9.61091 19.5355C10.6424 20.4732 12.0413 21 13.5 21C14.9587 21 16.3576 20.4732 17.3891 19.5355C18.4205 18.5979 19 17.3261 19 16H16.8C16.8 16.7956 16.4523 17.5587 15.8335 18.1213C15.2146 18.6839 14.3752 19 13.5 19C12.6248 19 11.7854 18.6839 11.1665 18.1213C10.5477 17.5587 10.2 16.7956 10.2 16H8Z" fill="white"/>
</svg>
