<svg width="24" height="24" viewBox="0 0 24 24" fill="none" xmlns="http://www.w3.org/2000/svg">
    <path
        d="M23.4561 4.26768C23.079 4.43491 22.6914 4.57604 22.2953 4.69062C22.7643 4.1603 23.1218 3.5363 23.34 2.85347C23.3889 2.70041 23.3382 2.53288 23.2124 2.43277C23.0868 2.33259 22.9122 2.32059 22.7739 2.40258C21.9327 2.90147 21.0252 3.26 20.0736 3.46965C19.1151 2.53303 17.8132 2 16.4674 2C13.6265 2 11.3152 4.31119 11.3152 7.15201C11.3152 7.37575 11.3294 7.59825 11.3574 7.81766C7.83212 7.50814 4.55474 5.77542 2.30416 3.01473C2.22396 2.91633 2.1004 2.8633 1.97389 2.87344C1.84731 2.88335 1.73358 2.95473 1.66964 3.06444C1.21317 3.84768 0.971858 4.7435 0.971858 5.65496C0.971858 6.89637 1.41508 8.07423 2.19802 8.99458C1.95996 8.91213 1.72894 8.80909 1.50845 8.68669C1.39008 8.62081 1.24561 8.62181 1.12801 8.68924C1.01034 8.75668 0.936555 8.8807 0.933459 9.01626C0.932917 9.0391 0.932917 9.06194 0.932917 9.08509C0.932917 10.9381 1.93023 12.6064 3.455 13.5157C3.32401 13.5026 3.19309 13.4837 3.06303 13.4588C2.92894 13.4332 2.79105 13.4802 2.70063 13.5824C2.61005 13.6846 2.58009 13.8271 2.62181 13.9571C3.1862 15.7192 4.63928 17.0153 6.39592 17.4104C4.93897 18.323 3.27283 18.801 1.52378 18.801C1.15883 18.801 0.791782 18.7795 0.432557 18.737C0.254106 18.7158 0.0834742 18.8212 0.0227002 18.9909C-0.0380738 19.1606 0.0263389 19.3499 0.178158 19.4472C2.42509 20.8879 5.0232 21.6494 7.69145 21.6494C12.9369 21.6494 16.2183 19.1759 18.0473 17.1008C20.3281 14.5134 21.6362 11.0886 21.6362 7.7047C21.6362 7.56334 21.634 7.42058 21.6297 7.27828C22.5295 6.60032 23.3042 5.77983 23.9347 4.83679C24.0304 4.69357 24.0201 4.50428 23.9091 4.37243C23.7983 4.24051 23.6137 4.19785 23.4561 4.26768Z"
        fill="currentColor" />
</svg>