<svg width="24" height="24" viewBox="0 0 24 24" fill="none" xmlns="http://www.w3.org/2000/svg">
<g clip-path="url(#clip0_1838_5101)">
<path d="M15.4781 20.4872C11.3236 21.8571 7.62092 20.1075 7.20768 16.5791C6.79445 13.0508 9.82715 9.08018 13.9816 7.71023C18.1361 6.34028 21.8388 8.08991 22.252 11.6183C22.6653 15.1466 19.6326 19.1172 15.4781 20.4872ZM12.2467 16.2446L12.3964 17.5222L14.2769 16.9021L14.4266 18.1798L15.931 17.6837L15.7814 16.406L16.5336 16.158C17.0323 15.9935 17.4909 15.6675 17.8085 15.2517C18.1261 14.8359 18.2767 14.3644 18.2271 13.9408C18.1775 13.5172 17.9318 13.1763 17.544 12.9931C17.1563 12.8098 16.6582 12.7993 16.1595 12.9638L13.1506 13.9559C13.0509 13.9888 12.9512 13.9867 12.8737 13.9501C12.7961 13.9134 12.747 13.8453 12.7371 13.7605C12.7272 13.6758 12.7573 13.5815 12.8208 13.4984C12.8843 13.4152 12.976 13.35 13.0758 13.3171L17.213 11.9529L17.0633 10.6752L15.1828 11.2953L15.0332 10.0176L13.5287 10.5137L13.6784 11.7914L12.9261 12.0394C12.4274 12.2039 11.9688 12.5299 11.6512 12.9457C11.3336 13.3615 11.183 13.8331 11.2327 14.2566C11.2823 14.6802 11.528 15.0211 11.9157 15.2043C12.3035 15.3876 12.8015 15.3981 13.3002 15.2336L16.3091 14.2415C16.4089 14.2086 16.5085 14.2107 16.586 14.2473C16.6636 14.284 16.7127 14.3521 16.7226 14.4369C16.7326 14.5216 16.7025 14.6159 16.6389 14.6991C16.5754 14.7822 16.4837 14.8474 16.3839 14.8803L12.2467 16.2446Z" fill="#7449F0"/>
<path d="M12.2467 16.2446L12.3964 17.5222L14.2769 16.9021L14.4266 18.1798L15.931 17.6837L15.7814 16.406L16.5336 16.158C17.0323 15.9935 17.4909 15.6675 17.8085 15.2517C18.1261 14.8359 18.2767 14.3644 18.2271 13.9408C18.1775 13.5172 17.9318 13.1763 17.544 12.9931C17.1563 12.8098 16.6582 12.7993 16.1595 12.9638L13.1506 13.9559C13.0509 13.9888 12.9512 13.9867 12.8737 13.9501C12.7961 13.9134 12.747 13.8453 12.7371 13.7605C12.7272 13.6758 12.7573 13.5815 12.8208 13.4984C12.8843 13.4152 12.976 13.35 13.0758 13.3171L17.213 11.9529L17.0633 10.6752L15.1828 11.2953L15.0332 10.0176L13.5287 10.5137L13.6784 11.7914L12.9261 12.0394C12.4274 12.2039 11.9688 12.5299 11.6512 12.9457C11.3336 13.3615 11.183 13.8331 11.2327 14.2566C11.2823 14.6802 11.528 15.0211 11.9157 15.2043C12.3035 15.3876 12.8015 15.3981 13.3002 15.2336L16.3091 14.2415C16.4089 14.2086 16.5085 14.2107 16.586 14.2473C16.6636 14.284 16.7127 14.3521 16.7226 14.4369C16.7326 14.5216 16.7025 14.6159 16.6389 14.6991C16.5754 14.7822 16.4837 14.8474 16.3839 14.8803L12.2467 16.2446Z" fill="#7449F0"/>
<path d="M8.76426 13.3277L9.02417 12.9006L8.55358 12.7316L7.1605 12.2315L7.46413 11.7325L11.0936 13.0356C11.3173 13.1159 11.5808 13.1122 11.8264 13.0255C12.0719 12.9387 12.2792 12.7759 12.4027 12.5729C12.5262 12.3699 12.5559 12.1433 12.4851 11.943C12.4142 11.7426 12.2488 11.585 12.0252 11.5047L9.04329 10.4341C8.67382 10.3014 8.40055 10.041 8.28359 9.71003C8.16663 9.3791 8.21556 9.00479 8.41962 8.66943C8.62368 8.33408 8.96615 8.06515 9.37169 7.92182C9.77724 7.77849 10.2126 7.77249 10.5821 7.90514L11.3276 8.17279L11.7982 8.34175L12.0581 7.91461L12.6216 6.98848L13.1714 7.18586L12.6078 8.112L12.3479 8.53913L12.8185 8.70809L14.2116 9.20826L13.9079 9.70726L10.2785 8.40414C10.0548 8.32384 9.79123 8.32747 9.54573 8.41424C9.30022 8.50101 9.0929 8.6638 8.96937 8.86682C8.84584 9.06983 8.81622 9.29642 8.88703 9.49676C8.95783 9.69709 9.12326 9.85475 9.34692 9.93506L12.3288 11.0057C12.6983 11.1383 12.9715 11.3987 13.0885 11.7297C13.2055 12.0606 13.1565 12.4349 12.9525 12.7703C12.7484 13.1056 12.4059 13.3746 12.0004 13.5179C11.5948 13.6612 11.1594 13.6672 10.79 13.5346L10.0445 13.2669L9.57392 13.098L9.31402 13.5251L8.75047 14.4512L8.20072 14.2539L8.76426 13.3277ZM2.76079 7.8744C0.343281 11.8474 1.93176 16.3418 6.30887 17.9134C10.686 19.4849 16.1938 17.5383 18.6113 13.5653C21.0288 9.59234 19.4403 5.09788 15.0632 3.52634C10.6861 1.95479 5.17829 3.90142 2.76079 7.8744Z" fill="#7449F0" stroke="#EDEEFE"/>
</g>
<defs>
<clipPath id="clip0_1838_5101">
<rect width="24" height="24" fill="white"/>
</clipPath>
</defs>
</svg>
