<svg width="24" height="24" viewBox="0 0 24 24" fill="none" xmlns="http://www.w3.org/2000/svg">
    <path fill-rule="evenodd" clip-rule="evenodd"
        d="M6.74807 22.7927C8.03267 23.4604 9.4766 23.869 10.8658 23.9587C13.4897 24.1231 15.2473 23.8092 17.3336 22.7927C19.2604 21.856 20.8288 20.4459 22.1383 18.4877C23.5126 16.4298 24.1349 14.0282 23.9756 11.4322C23.7615 7.91936 22.1632 4.79023 19.4745 2.62275C18.6231 1.93514 17.6074 1.3123 16.7361 0.953544C16.517 0.858872 16.268 0.754235 16.1834 0.719357C15.6805 0.5051 14.1221 0.146346 13.2208 0.041709C12.4541 -0.0429969 10.8558 0.0068301 10.1139 0.141363C8.72476 0.395481 7.8833 0.66953 6.72318 1.24254C5.50331 1.84545 4.39796 2.64268 3.41709 3.62926C2.29182 4.76531 1.46032 6.00102 0.91262 7.35133C0.69852 7.8795 0.2753 9.37929 0.155803 10.037C-0.0682546 11.2428 -0.0483384 13.1911 0.200614 14.3969C0.449567 15.5927 0.982326 16.9231 1.69931 18.1339C2.13249 18.8564 2.13249 18.8713 1.7491 20.2117C1.45534 21.2481 1.25617 21.9606 1.20638 22.1699C1.18647 22.2396 1.12672 22.4689 1.07195 22.6831C0.977347 23.0419 0.977347 23.0817 1.04705 23.1913C1.11676 23.296 1.14664 23.3059 1.25617 23.2661C1.32588 23.2362 1.43542 23.2163 1.50513 23.2163C1.56986 23.2163 1.75408 23.1714 1.91341 23.1116C2.06776 23.0568 2.34161 22.9821 2.52086 22.9422C2.88433 22.8675 3.70089 22.6582 4.56227 22.419C4.87595 22.3293 5.2195 22.2347 5.31909 22.2098C5.52323 22.1549 5.53318 22.1549 6.74807 22.7927ZM15.0531 18.6521C15.2125 18.697 15.3867 18.7418 15.4415 18.7518C15.4963 18.7667 15.7452 18.7667 15.9942 18.7567C16.7759 18.7219 17.5277 18.4179 18.1999 17.8648C18.5883 17.5459 19.0015 17.0776 19.0015 16.958C19.0015 16.9181 19.0563 16.7238 19.126 16.5295C19.2107 16.2853 19.2505 16.0661 19.2505 15.8419C19.2505 15.5479 19.2356 15.4981 19.1161 15.3835C19.0364 15.3087 18.9119 15.234 18.8273 15.214C18.7476 15.1941 18.6281 15.1393 18.5634 15.0895C18.4986 15.0396 18.3792 14.9848 18.2895 14.9649C18.1999 14.95 18.0754 14.8951 18.0057 14.8453C17.936 14.7955 17.7866 14.7307 17.6771 14.7008C17.5626 14.6709 17.4431 14.6161 17.4132 14.5763C17.3833 14.5364 17.2589 14.4816 17.1394 14.4517C17.0199 14.4218 16.8954 14.367 16.8605 14.3221C16.8257 14.2823 16.7709 14.2474 16.7361 14.2474C16.7012 14.2474 16.5469 14.1776 16.3875 14.0929C16.1734 13.9783 16.034 13.9385 15.8349 13.9385C15.5162 13.9335 15.3469 14.0381 15.0282 14.4168C14.6996 14.8154 14.0623 15.4682 13.9129 15.5578C13.7885 15.6326 13.7636 15.6326 13.4598 15.528C13.2806 15.4632 13.1063 15.3884 13.0665 15.3585C13.0316 15.3286 12.947 15.2888 12.8773 15.2689C12.7279 15.224 12.1354 14.9101 12.0309 14.8254C11.991 14.7905 11.8865 14.7357 11.7968 14.7008C11.7122 14.6659 11.6027 14.5962 11.5529 14.5414C11.5081 14.4915 11.4483 14.4467 11.4284 14.4467C11.4085 14.4467 11.3338 14.3969 11.2691 14.3371C11.1994 14.2723 10.9803 14.0879 10.7811 13.9235C10.0791 13.3555 9.37702 12.5981 8.84426 11.8308C8.27167 10.9987 8.24677 10.6698 8.71978 10.1765C8.84426 10.047 8.94384 9.92241 8.94384 9.90248C8.94384 9.87757 8.98367 9.82276 9.03346 9.77293C9.07827 9.7231 9.20275 9.55867 9.30731 9.40421C9.49651 9.12518 9.49651 9.12019 9.48158 8.70663C9.46166 8.29307 9.34714 7.93929 9.09321 7.46095C9.03844 7.3613 8.99363 7.2467 8.99363 7.21182C8.99363 7.17694 8.93388 7.02248 8.86417 6.873C8.84207 6.82559 8.81595 6.76966 8.78854 6.71094C8.7295 6.5845 8.6644 6.44508 8.6202 6.34981C8.59271 6.29268 8.55894 6.21938 8.52422 6.14402C8.47718 6.04192 8.42841 5.93604 8.39116 5.86151C8.26171 5.56753 8.08246 5.34829 7.89326 5.25362C7.70903 5.15396 6.68335 5.14898 6.5041 5.24365C6.09582 5.46289 5.96138 5.55756 5.77716 5.75189C5.56306 5.97611 5.10997 6.61888 5.10997 6.6986C5.10997 6.72351 5.08009 6.77832 5.04026 6.81819C5.00043 6.86303 4.89587 7.11216 4.80624 7.37127C4.65189 7.82967 4.64193 7.86954 4.64691 8.61694C4.64691 9.3195 4.66185 9.41916 4.77139 9.71314C4.8411 9.89251 4.9108 10.1167 4.93072 10.2164C4.94566 10.321 4.99545 10.4257 5.03528 10.4605C5.07511 10.4954 5.10997 10.5502 5.10997 10.5901C5.10997 10.6947 5.60787 11.6365 5.87674 12.0351C5.93151 12.1148 6.03109 12.2693 6.1008 12.3789C6.53895 13.0565 7.05678 13.6594 8.14719 14.7457C9.12806 15.7322 9.48656 16.0511 9.95957 16.365C10.1239 16.4747 10.2981 16.6042 10.3479 16.654C10.3977 16.6989 10.4674 16.7387 10.5073 16.7387C10.5421 16.7387 10.6019 16.7736 10.6417 16.8185C10.6766 16.8583 10.7861 16.9381 10.8807 16.9929C10.9803 17.0427 11.0948 17.1075 11.1346 17.1324C11.4035 17.2968 11.7321 17.4662 11.8665 17.516C11.9512 17.5459 12.0607 17.6107 12.1055 17.6556C12.1504 17.7004 12.225 17.7353 12.2698 17.7353C12.3196 17.7353 12.4541 17.7901 12.5786 17.8549C12.703 17.9196 12.8922 17.9994 13.0018 18.0343C13.1113 18.0691 13.2457 18.1289 13.3005 18.1588C13.3553 18.1937 13.5146 18.2485 13.649 18.2784C13.7885 18.3133 13.9727 18.3731 14.0623 18.4129C14.1519 18.4528 14.3461 18.5076 14.4955 18.5325C14.6449 18.5574 14.8988 18.6122 15.0531 18.6521Z"
        fill="currentColor" />
</svg>